<!-- Generated by IcoMoon.io -->
<svg version="1.1" xmlns="http://www.w3.org/2000/svg" width="24" height="24" viewBox="0 0 24 24">
<title>flow-children</title>
<path d="M17 16c-1.305 0-2.403 0.837-2.816 2h-3.184c-1.654 0-3-1.346-3-3v-3.025c0.838 0.634 1.87 1.025 3 1.025h3.184c0.413 1.163 1.512 2 2.816 2 1.657 0 3-1.343 3-3s-1.343-3-3-3c-1.305 0-2.403 0.837-2.816 2h-3.184c-1.654 0-3-1.346-3-3v-0.184c1.163-0.413 2-1.512 2-2.816 0-1.657-1.343-3-3-3s-3 1.343-3 3c0 1.304 0.837 2.403 2 2.816v7.184c0 2.757 2.243 5 5 5h3.184c0.413 1.163 1.512 2 2.816 2 1.657 0 3-1.343 3-3s-1.343-3-3-3zM17 11c0.552 0 1 0.449 1 1s-0.448 1-1 1-1-0.449-1-1 0.448-1 1-1zM7 4c0.552 0 1 0.449 1 1s-0.448 1-1 1-1-0.449-1-1 0.448-1 1-1zM17 20c-0.552 0-1-0.449-1-1s0.448-1 1-1 1 0.449 1 1-0.448 1-1 1z"></path>
</svg>
